<svg xmlns="http://www.w3.org/2000/svg" xmlns:xlink="http://www.w3.org/1999/xlink" width="281" height="208" viewBox="0 0 281 208">
    <defs>
        <path id="a" d="M.012.318h12.713v32.526H.012z"/>
        <path id="c" d="M0 .069h38.724v38.895H0z"/>
        <path id="e" d="M.087.363h11.466V13H.087z"/>
        <path id="g" d="M.797.627h21.199V18.52H.796z"/>
    </defs>
    <g fill="none" fill-rule="evenodd">
        <g transform="translate(11 165.526)">
            <mask id="b" fill="#fff">
                <use xlink:href="#a"/>
            </mask>
            <path fill="#FFF" d="M12.072 17.87c-.73-7.579-.617-8.384-2.174-15.5-.58-2.656-3.876-3.203-3.171 1.203C8.02 11.67 8.58 13.782 8.89 22c-3.72-.237-6.678.756-8.294 4.005-1.13 2.272-.684 5.134 1.886 6.183 2.272.927 3.973.903 5.93-.268 5.88-3.519 4.231-8.126 3.66-14.05" mask="url(#b)"/>
        </g>
        <g transform="rotate(5 140.68 2522.654)">
            <mask id="d" fill="#fff">
                <use xlink:href="#c"/>
            </mask>
            <path fill="#FFF" d="M38.444 22.406a.227.227 0 0 0-.019-.08c.003-.04.011-.08.007-.12-.79-7.416-1.464-13.64-2.37-21.042-.19-1.553-1.92-1-1.945-.995C26.9 1.912 20.67 2.888 13.287 3.622c-.983.098-4.199.503-3.735 3.812.988 7.043.647 13.148-.122 20.253-3.582-.11-7.623 1.834-9.028 5.03-.692 1.572-.498 3.69.64 5.012 1.519 1.764 3.861 1.354 5.76.52 2.258-.99 4.342-2.611 5.408-4.895 1.272-2.725 1.234-8.56 1.503-11.513.318-3.492.45-6.994.422-10.495 6.052-1.763 12.23-2.118 18.261-3.951.5 4.696.998 10.436 1.498 15.133-2.146.531-4.159 1.543-5.825 3.092-1.802 1.672-3.089 5.065-.92 7.04 2.41 2.192 6.378-.251 8.364-1.902 1.228-1.022 2.362-2.342 2.944-3.858.563-1.464.075-2.986-.013-4.494" mask="url(#d)"/>
        </g>
        <path fill="#FFF" d="M32.207 72.71c.187-2.95 2.015-5.29 4.741-6.352.821-.32.55-1.559-.174-1.79-2.252-.72-7.47-3.68-9.231-5.281a11.899 11.899 0 0 1-2.083-2.444c-.371-.588-.628-1.65-1.156-2.095-1.152-.97-3.327.28-4.323.954-1.416.959-3.56 3.548-3.594 4.556-.095 2.952 1.918 4.584 4.034 6.398 2.199 1.886 7.708 6.091 10.52 6.954.621.192 1.225-.269 1.266-.9"/>
        <path fill="#F3CE32" d="M248.266 190.716c-.562-.503-1.454-.2-1.98.25-1.515 1.298-4.395 2.404-6.229 2.81-.88.195 5.823 4.77 4.982 12.794-.21 2.008 3.984-1.233 5.765-2.297 1.482-.884 1.427-1.57 1.257-3.19-.388-3.672-.818-7.696-3.795-10.367M111.873 9.473c-.69-.181-1.408.316-1.737.803-.945 1.403-3.215 3.1-4.762 3.967-.742.418 7.006 1.55 9.007 7.521.5 1.492 3.24-2.138 4.513-3.457 1.058-1.096.771-1.569.055-2.666-1.625-2.487-3.413-5.211-7.076-6.168"/>
        <path fill="#FFF" d="M90.704 38.782c.561.304 1.22-.151 1.548-.653.95-1.446 2.387-3.453 3.948-3.747.788-.148.883-1.453.433-1.74-2.646-1.683-4.804-9.009-6.67-8.088-1.59.785-2.96 1.94-4.175 3.245-1.01 1.084-.822 1.657-.342 2.998 1.089 3.043 2.288 6.376 5.258 7.985"/>
        <g transform="rotate(-165 103.814 1.93)">
            <mask id="f" fill="#fff">
                <use xlink:href="#e"/>
            </mask>
            <path fill="#FFF" d="M3.894.601C2.571 2.018 1.088 5.984.587 7.663c-.48 1.617-.98 3.111.383 4.471.465.464 2.91.917 4.192.862.902-.04 2.774-.23 3.044-1.103.123-.399-.19-.994-.225-1.404a5.66 5.66 0 0 1 .183-1.903c.36-1.388 2.216-4.66 3.264-5.808.337-.37-.047-1.053-.685-.909C8.62 2.347 6.478 1.9 5.06.572 4.756.29 4.187.288 3.894.602" mask="url(#f)"/>
        </g>
        <path fill="#F3CE32" d="M268.674 100.973c1.547.514 5.588-.084 7.284-.456 1.631-.357 3.147-.637 4.293-2.559.391-.656.518-3.122.298-4.27-.154-.808-.58-2.431-1.461-2.247-.405.084-.942.665-1.336.9-.61.362-1.241.612-1.87.772-1.395.355-4.812.27-6.062-.124-.402-.126-1.016.562-.794 1.077.737 1.711.576 3.898-.53 5.854-.236.418-.163.94.178 1.053M258.229 77.354c2.077-1.26 5.518-5.668 6.841-7.588 1.27-1.845 2.504-3.53 1.688-5.785-.278-.77-2.675-2.312-4.07-2.75-.98-.308-3.067-.812-3.764.18-.32.455-.264 1.328-.42 1.86-.24.822-.619 1.6-1.086 2.325-1.036 1.607-4.552 4.993-6.207 6.024-.533.332-.444 1.345.305 1.417 2.49.24 4.564 1.658 5.456 3.891.19.477.798.705 1.257.426"/>
        <path fill="#FFF" d="M277.785 188.213c.66-5.215-.46-10.413-3.477-14.784-1.357-1.967-2.425-3.167-4.984-2.858-2.253.273-8.723 2.538-7.857 4.344 1.878 3.915 2.855 7.95 2.913 12.278.012.866.94 1.41 1.75 1.363 3.356-.198 6.583.138 9.817.955.814.206 1.741-.535 1.838-1.298"/>
        <g transform="rotate(-165 20.212 75.285)">
            <mask id="h" fill="#fff">
                <use xlink:href="#g"/>
            </mask>
            <path fill="#FFF" d="M1.355 10.807c2.64 1.333 4.074 3.932 3.98 6.856-.029.881 1.217 1.12 1.714.543 1.546-1.788 6.32-5.424 8.483-6.416a11.948 11.948 0 0 1 3.065-.954c.686-.11 1.764.071 2.381-.24 1.346-.679 1.05-3.17.82-4.35-.324-1.68-1.864-4.668-2.778-5.094-2.678-1.248-4.969-.038-7.468 1.195C8.955 3.628 2.922 7.043 1.025 9.29c-.42.496-.233 1.233.33 1.517" mask="url(#h)"/>
        </g>
        <path fill="#F3CE32" d="M21.022 115.627c.105-1.957 1.119-3.717 2.634-4.751.457-.311.305-1.09-.097-1.152-1.252-.191-4.156-1.482-5.137-2.312a5.547 5.547 0 0 1-1.159-1.343c-.206-.338-.348-1-.643-1.227-.641-.494-1.85.597-2.404 1.163-.786.802-1.978 2.766-1.996 3.43-.052 1.946 1.07 2.765 2.246 3.69 1.222.962 4.289 3.033 5.853 3.249.345.046.68-.33.703-.747M61.36 194.943c-1.657-.718-4.187-2.977-5.212-4.378-.577-.79-1.769-.626-2.053.181-1.988 5.66-2.792 6.918-9.097 8.68-.615.172-.804 1.503-.759 1.723.416 1.987 3.225 5.281 5.444 6.013 2.246.74 4.125-.945 5.646-2.09 4.33-3.256 3.19-4.672 6.508-8.726.324-.396.044-1.177-.477-1.403"/>
    </g>
</svg>
