<svg xmlns="http://www.w3.org/2000/svg" xmlns:xlink="http://www.w3.org/1999/xlink" width="132" height="95" viewBox="0 0 132 100">
    <defs>
        <path id="a" d="M0 .46h87.831v92.433H0z"/>
        <path id="d" d="M69.027 80.49c7.807-5.09 10.88-7.836 14.852-16.88 2.57-3.585 3.536-14.9 3.874-19.91C89.087 23.907 73.18 5.74 54.283 1.6 43.484-.766 32.539.476 22.882 6.001 13.34 11.461 6.915 18.024 2.704 28.374-6.15 50.143 7.787 77.958 29.29 85.125c10.83 3.61 30.321 1.507 39.737-4.634"/>
        <filter id="c" width="119.4%" height="119.7%" x="-9.7%" y="-7.5%" filterUnits="objectBoundingBox">
            <feOffset dy="2" in="SourceAlpha" result="shadowOffsetOuter1"/>
            <feGaussianBlur in="shadowOffsetOuter1" result="shadowBlurOuter1" stdDeviation="2.5"/>
            <feColorMatrix in="shadowBlurOuter1" values="0 0 0 0 0 0 0 0 0 0 0 0 0 0 0 0 0 0 0.3 0"/>
        </filter>
        <path id="e" d="M.86.056h19v23h-19z"/>
        <path id="g" d="M.886.89h11v13h-11z"/>
        <path id="i" d="M0 0h14v18H0z"/>
    </defs>
    <g fill="none" fill-rule="evenodd">
        <path fill="#88C0E3" d="M108.665 31.225c-5.063-7.826-12.276-16.283-21.304-20.288-3.576-2.585-9.257-2.682-14.266-3.038C53.307 6.49 32.761 21.259 28.55 40.14c-2.407 10.79-1.206 21.74 4.284 31.417 5.424 9.562 14.372 16.44 24.952 20.033 21.864 7.423 46.947-4.669 54.196-26.146 3.65-10.815 2.788-24.78-3.317-34.22"/>
        <g transform="translate(27 7.095)">
            <mask id="b" fill="#fff">
                <use xlink:href="#a"/>
            </mask>
            <g mask="url(#b)">
                <use fill="#000" filter="url(#c)" xlink:href="#d"/>
                <use fill="#007FB7" xlink:href="#d"/>
            </g>
        </g>
        <path fill="#FFF" d="M84.375 32.005c-3.459.969-4.877-1.688-7.518-3.781-2.016-1.599-5.714-2.21-7.263-1.18-1.147.763-.892 2.998-.82 3.36 2.152 10.723 3.02 19.61 2.737 30.298-4.23.058-9.946-.178-13.82 3.433-2.821 2.63-3.72 5.844-2.588 8.1 3.383 6.745 18.617 1.027 19.965-3.585a2.93 2.93 0 0 0 .233-.979c.736-12.66.53-22.456-1.576-34.867.85.386 5.305 5.653 11.619 2.2 3.106-1.7 2.492-3.968-.969-2.999"/>
        <g transform="rotate(-7 379.622 23.219)">
            <mask id="f" fill="#fff">
                <use xlink:href="#e"/>
            </mask>
            <path fill="#F3CE32" d="M18.993 9.834c-3.78-1.466-6.499-4.701-7.555-8.829C11.185.02 9.642-.378 9.21.695c-.803 1.99-1.298 4.171-2.623 5.862C5.756 7.62 3.828 9.98 2.371 9.478c-.757-.26-1.293.256-1.448.894-.185.637.022 1.401.8 1.618 4.317 1.203 6.96 5.152 7.303 9.811.124 1.705 2.24 1.64 2.438 0 .54-4.486 3.517-8.125 7.529-9.456 1.196-.397 1.115-2.08 0-2.511" mask="url(#f)"/>
        </g>
        <g transform="rotate(1 52.122 5972.609)">
            <mask id="h" fill="#fff">
                <use xlink:href="#g"/>
            </mask>
            <path fill="#F3CE32" d="M11.315 6.663C8.57 6.015 7.53 4.079 7.352 1.606c-.07-.972-1.487-.937-1.607 0-.312 2.428-1.703 4.344-4.288 5.08-.795.228-.728 1.182 0 1.433 2.454.847 3.421 3.05 4.023 5.23.157.57 1.187.783 1.469.178.537-1.155.9-2.329 1.723-3.35.351-.434 1.506-2.28 2.216-2.082.502.14.858-.158.96-.523.116-.361-.024-.79-.533-.91" mask="url(#h)"/>
        </g>
        <g transform="rotate(7 -554.523 995.55)">
            <mask id="j" fill="#fff">
                <use xlink:href="#i"/>
            </mask>
            <path fill="#F3CE32" d="M13.27 7.782C10.279 6.624 9.562 2.974 8.11.486c-.397-.683-1.332-.612-1.745 0-1.81 2.68-2.534 5.69-5.542 7.339a.76.76 0 0 0-.5.286c-.487.377-.375 1.024.013 1.41.105.124.24.232.418.304 3.274 1.328 4.698 4.251 5.589 7.46.27.976 1.656.93 1.95 0 .974-3.094 2.328-5.943 5.22-7.671.799-.478.542-1.528-.242-1.832" mask="url(#j)"/>
        </g>
    </g>
</svg>
