<svg xmlns="http://www.w3.org/2000/svg" xmlns:xlink="http://www.w3.org/1999/xlink" width="136" height="105" viewBox="0 0 136 110">
    <defs>
        <path id="b" d="M.405 43.352a43.735 43.735 0 0 1-.342-3.376C-.525 30.398 3 20.585 9.733 13.053c5.638-6.307 11.406-8.388 18.71-11.021l.43-.156c8.66-3.125 18.538-2.326 27.81 2.25 9.672 4.772 17.187 13.11 20.104 22.302 1.275 4.02 2.028 7.123 2.441 10.064.58 4.122.48 8.051-.305 12.01-1.396 7.029-6.405 14.456-15.316 22.704-4.592 4.252-8.775 6.337-13.986 6.972-.306.037-.623.065-.959.085-4.83 1.8-10.238 2.026-15.312.625-9.783-2.7-17.067-6.699-22.27-12.227C5.555 60.787 1.663 52.292.407 43.353"/>
        <filter id="a" width="117.6%" height="117.5%" x="-8.8%" y="-6.2%" filterUnits="objectBoundingBox">
            <feOffset dy="2" in="SourceAlpha" result="shadowOffsetOuter1"/>
            <feGaussianBlur in="shadowOffsetOuter1" result="shadowBlurOuter1" stdDeviation="2"/>
            <feColorMatrix in="shadowBlurOuter1" values="0 0 0 0 0 0 0 0 0 0 0 0 0 0 0 0 0 0 0.2 0"/>
        </filter>
        <path id="c" d="M0 0h74.016v74.016H0z"/>
        <path id="d" d="M.242 18.899c.288.27.548.568.792.88L26.496 5.951A36.61 36.61 0 0 0 22.42.316L.242 18.9z"/>
        <path id="f" d="M.028.176h11.68v23.471H.028z"/>
        <path id="h" d="M.435.11h11v29h-11z"/>
        <path id="j" d="M0 .052h29.721v29.56H0z"/>
    </defs>
    <g fill="none" fill-rule="evenodd">
        <g transform="translate(35 25)">
            <use fill="#000" filter="url(#a)" xlink:href="#b"/>
            <use fill="#AEECFF" xlink:href="#b"/>
        </g>
        <g fill="#E0F8FF">
            <path d="M74.818 72.35l.343 28.884a36.477 36.477 0 0 0 8.997-1.209l-6.88-28.094a7.494 7.494 0 0 1-2.46.42M70.217 58.583L51.747 36.34a36.687 36.687 0 0 0-6.988 7.388l23.373 17.006a7.564 7.564 0 0 1 2.085-2.151M67.858 67.713L44.243 84.61a36.675 36.675 0 0 0 7.651 8.504l17.27-23.324a7.532 7.532 0 0 1-1.306-2.078M96.416 35.496L78.62 58.324c.484.286.938.617 1.346 1l22.178-18.582a36.7 36.7 0 0 0-5.727-5.246M106.22 46.376L80.755 60.204c.195.25.37.517.533.79l25.86-12.93a37.094 37.094 0 0 0-.93-1.688"/>
        </g>
        <g transform="translate(79.723 40.425)">
            <mask id="e" fill="#fff">
                <use xlink:href="#d"/>
            </mask>
            <path d="M.242 18.899c.288.27.548.568.792.88L26.496 5.951A36.61 36.61 0 0 0 22.42.316L.242 18.9z" mask="url(#e)"/>
        </g>
        <path fill="#007FB7" d="M56.243 66.53a20.714 20.714 0 0 1-.16-1.595c-.278-4.524 1.382-9.16 4.554-12.717 2.656-2.979 5.373-3.962 8.813-5.206l.202-.073c4.08-1.476 8.733-1.099 13.1 1.062 4.556 2.255 8.096 6.193 9.47 10.535.6 1.898.955 3.364 1.15 4.753a16.767 16.767 0 0 1-.144 5.673c-.657 3.32-3.017 6.829-7.214 10.725-2.164 2.008-4.134 2.993-6.588 3.293a7.294 7.294 0 0 1-.452.04c-2.275.85-4.823.957-7.213.295-4.608-1.275-8.039-3.164-10.49-5.775-2.602-2.775-4.435-6.787-5.027-11.01"/>
        <path fill="#FFF" d="M82.44 55.522a.854.854 0 0 0-.568-.269c-3.765-.308-7.569.273-10.83 2.246-.25.065-.46.253-.529.592-.746 3.669-.971 7.449-.963 11.2-1.665.011-3.384.101-4.792.978-1.211.754-2.228 2.02-1.368 3.277 1.58 2.308 7.195 1.233 7.84-1.173.05-.187.072-.358.073-.516v-.004c-.116-4.32-.024-8.732.803-12.988 2.676-1.554 5.685-2.07 8.744-1.954-.532 3.034-.64 6.056-.6 9.125-1.433.062-3.01.233-4.134.959-1.07.691-1.817 2.045-1.015 3.134 1.473 1.999 6.302.571 6.823-1.563a2.06 2.06 0 0 0 .06-.388.93.93 0 0 0 .021-.22c-.114-3.924-.11-7.759.693-11.619a.836.836 0 0 0-.259-.817"/>
        <g transform="rotate(-6 29.967 -342.833)">
            <mask id="g" fill="#fff">
                <use xlink:href="#f"/>
            </mask>
            <path fill="#F3CE32" d="M11.04 14.963c.567-5.686.74-7.52.643-12.983-.037-2.039-2.338-2.908-2.466.437-.235 6.148-.021 7.734-.984 13.833-2.653-.702-5.73-.343-7.367 1.823-1.143 1.513-1.235 3.684.47 4.82 1.508 1.006 3.77.895 5.354.31 4.757-1.759 3.907-3.795 4.35-8.24" mask="url(#g)"/>
        </g>
        <g transform="rotate(6 -463.163 1202.286)">
            <mask id="i" fill="#fff">
                <use xlink:href="#h"/>
            </mask>
            <path fill="#F3CE32" d="M10.87 15.76c-.632-6.758-.534-7.476-1.882-13.82C8.486-.429 5.635-.916 6.244 3.011c1.12 7.22 1.604 9.102 1.872 16.43-3.218-.212-5.778.673-7.176 3.57-.977 2.026-.592 4.578 1.632 5.513 1.966.826 3.438.805 5.131-.239 5.088-3.137 3.66-7.245 3.167-12.526" mask="url(#i)"/>
        </g>
        <g transform="translate(.521 19.649)">
            <mask id="k" fill="#fff">
                <use xlink:href="#j"/>
            </mask>
            <path fill="#F3CE32" d="M29.506 17.028a.17.17 0 0 0-.014-.06c.002-.031.008-.062.005-.092C28.89 11.24 28.373 6.51 27.678.885c-.145-1.18-1.475-.76-1.493-.757-5.538 1.325-10.32 2.066-15.987 2.625-.755.074-3.223.382-2.867 2.897.759 5.353.497 9.992-.094 15.391-2.749-.083-5.85 1.395-6.929 3.823-.53 1.195-.382 2.805.492 3.81 1.166 1.34 2.963 1.029 4.42.395 1.734-.754 3.333-1.985 4.152-3.72.976-2.072.946-6.506 1.153-8.75a80 80 0 0 0 .324-7.976c4.645-1.34 9.386-1.61 14.015-3.003.384 3.569.766 7.931 1.15 11.5-1.647.404-3.192 1.174-4.471 2.35-1.383 1.272-2.37 3.85-.705 5.35 1.849 1.667 4.894-.19 6.418-1.445.943-.776 1.813-1.78 2.26-2.932.432-1.112.057-2.27-.01-3.415" mask="url(#k)"/>
        </g>
    </g>
</svg>
