<svg xmlns="http://www.w3.org/2000/svg" xmlns:xlink="http://www.w3.org/1999/xlink" width="24" height="24" viewBox="0 0 24 24">
    <defs>
        <path id="a" d="M0 .038h23.975V24H0z"/>
    </defs>
    <g fill="none" fill-rule="evenodd">
        <g transform="translate(0 .023)">
            <mask id="b" fill="#fff">
                <use xlink:href="#a"/>
            </mask>
            <path fill="#007FB7" d="M13.514.298a4.934 4.934 0 0 0-.582-.139C9.954-.356 6.879.82 4.577 2.678 1.754 4.958-.196 9.146.016 12.92c.17 3.016 2.283 7.027 4.741 8.697 2.616 1.777 5.719 2.709 8.894 2.277 6.285-.853 12.23-8.94 9.746-15.639-.432-1.166-1.15-2.303-1.962-3.248-.875-1.017-1.853-2.053-2.912-2.889-1.414-1.115-3.188-1.907-5.01-1.821" mask="url(#b)"/>
        </g>
        <path fill="#FFF" d="M14.14 8.646c-1.101-.73-2.062-1.074-3.271-1.64-.675-.316-1.323-.658-2.137-.252-.814.407-.685 1.134-.705 1.914-.06 2.354-.054 4.68.358 7.011.162.923 1.12 1.356 1.93.87 1.2-.721 2.624-1.928 3.745-2.745.957-.697 2.667-1.339 2.667-2.642 0-1.146-1.69-1.922-2.587-2.516"/>
    </g>
</svg>
