<?xml version="1.0" encoding="UTF-8"?>
<svg width="24px" height="24px" viewBox="0 0 24 24" version="1.1" xmlns="http://www.w3.org/2000/svg" xmlns:xlink="http://www.w3.org/1999/xlink">
    <!-- Generator: Sketch 52.6 (67491) - http://www.bohemiancoding.com/sketch -->
    <title>Group 2</title>
    <desc>Created with Sketch.</desc>
    <g id="Fixed" stroke="none" stroke-width="1" fill="none" fill-rule="evenodd">
        <g id="28---score" transform="translate(-104.000000, -464.000000)">
            <g id="Group-4" transform="translate(61.000000, 444.000000)">
                <g id="Group-2" transform="translate(43.000000, 20.000000)">
                    <path d="M13.5137288,0.260048659 C13.3257852,0.20342894 13.131926,0.156274011 12.9318134,0.121626123 C9.95378519,-0.393528806 6.87857392,0.780950067 4.57727814,2.64027401 C1.75440491,4.92078105 -0.196355658,9.10895007 0.0157570182,12.8835416 C0.185278145,15.8990909 2.29947533,19.9101332 4.75744716,21.5804994 C7.37327814,23.3576825 10.4758697,24.2894571 13.6513063,23.8579642 C19.935926,23.004274 25.8804894,14.9167811 23.3975035,8.2189219 C22.9651655,7.05221767 22.2478697,5.91525993 21.4349119,4.97013317 C20.5602641,3.95317542 19.5821796,2.91762612 18.5226303,2.08151345 C17.1088274,0.96602049 15.3348556,0.174696546 13.5137288,0.260048659" id="Fill-1" fill="#FFFFFF"></path>
                    <path d="M14.1403607,9.07694863 C13.0387467,8.34697186 12.0778937,8.00350187 10.8690256,7.43709794 C10.1942932,7.12100002 9.54584056,6.77934385 8.73198981,7.18580257 C7.91813906,7.59226129 8.04658129,8.31976468 8.02703573,9.09953883 C7.96790632,11.4533718 7.97349076,13.7795029 8.38460447,16.1104158 C8.54737462,17.0333162 9.5055997,17.4663225 10.3146873,16.980221 C11.514686,16.2591484 12.9385552,15.0519742 14.0597147,14.235759 C15.017447,13.5385957 16.7272727,12.8963414 16.7272727,11.5936948 C16.7272727,10.447036 15.0376496,9.6713842 14.1403607,9.07694863" id="Fill-4" fill="#007FB7"></path>
                </g>
            </g>
        </g>
    </g>
</svg>