<svg xmlns="http://www.w3.org/2000/svg" xmlns:xlink="http://www.w3.org/1999/xlink" width="96" height="96" viewBox="0 0 96 96">
    <defs>
        <path id="b" d="M.446 47.687a48.108 48.108 0 0 1-.376-3.714c-.647-10.535 3.23-21.33 10.636-29.615C16.908 7.42 23.253 5.132 31.287 2.235l.473-.171c9.527-3.438 20.392-2.56 30.591 2.474 10.64 5.25 18.906 14.421 22.115 24.533 1.402 4.42 2.23 7.835 2.685 11.07.638 4.535.528 8.857-.336 13.211-1.535 7.732-7.045 15.902-16.847 24.975-5.052 4.677-9.653 6.97-15.385 7.668a17.08 17.08 0 0 1-1.054.094c-5.314 1.981-11.263 2.229-16.844.688-10.761-2.97-18.774-7.369-24.496-13.45-6.08-6.46-10.36-15.806-11.743-25.639"/>
        <filter id="a" width="113.7%" height="113.7%" x="-6.9%" y="-6.8%" filterUnits="objectBoundingBox">
            <feOffset in="SourceAlpha" result="shadowOffsetOuter1"/>
            <feGaussianBlur in="shadowOffsetOuter1" result="shadowBlurOuter1" stdDeviation="2"/>
            <feColorMatrix in="shadowBlurOuter1" values="0 0 0 0 0 0 0 0 0 0 0 0 0 0 0 0 0 0 0.2 0"/>
        </filter>
        <path id="c" d="M0 0h81.418v81.418H0z"/>
        <path id="d" d="M.266 20.789c.317.296.603.625.871.968L29.146 6.546A40.272 40.272 0 0 0 24.662.348L.266 20.788z"/>
    </defs>
    <g fill="none" fill-rule="evenodd">
        <g transform="translate(4 4)">
            <use fill="#000" filter="url(#a)" xlink:href="#b"/>
            <use fill="#AEECFF" xlink:href="#b"/>
        </g>
        <g fill="#E0F8FF">
            <path d="M47.8 56.086l.377 31.771a40.125 40.125 0 0 0 9.897-1.329l-7.568-30.904a8.244 8.244 0 0 1-2.707.462M42.739 40.941L22.422 16.474a40.356 40.356 0 0 0-7.687 8.127l25.71 18.707a8.32 8.32 0 0 1 2.294-2.367M40.144 50.984L14.168 69.573c2.3 3.544 5.146 6.7 8.416 9.354L41.58 53.27a8.285 8.285 0 0 1-1.437-2.287M71.558 15.546L51.98 40.656a8.367 8.367 0 0 1 1.48 1.1l24.396-20.44a40.37 40.37 0 0 0-6.3-5.77M82.341 27.514l-28.009 15.21c.214.276.407.57.586.87L83.365 29.37a40.803 40.803 0 0 0-1.024-1.856"/>
        </g>
        <g transform="translate(53.195 20.968)">
            <mask id="e" fill="#fff">
                <use xlink:href="#d"/>
            </mask>
            <path d="M.266 20.789c.317.296.603.625.871.968L29.146 6.546A40.272 40.272 0 0 0 24.662.348L.266 20.788z" mask="url(#e)"/>
        </g>
        <path fill="#007FB7" d="M27.368 49.683a22.785 22.785 0 0 1-.177-1.755c-.305-4.976 1.521-10.075 5.01-13.988 2.921-3.277 5.91-4.358 9.694-5.727l.223-.08c4.488-1.624 9.605-1.209 14.41 1.168 5.01 2.48 8.905 6.812 10.416 11.589.66 2.088 1.05 3.7 1.265 5.228.3 2.142.249 4.184-.158 6.24-.723 3.653-3.319 7.512-7.936 11.797-2.38 2.21-4.547 3.293-7.247 3.623-.158.019-.323.034-.496.044-2.503.936-5.305 1.053-7.934.325-5.07-1.403-8.843-3.48-11.539-6.353-2.863-3.052-4.88-7.466-5.53-12.11l-.001-.001"/>
        <path fill="#FFF" d="M56.183 37.574a.94.94 0 0 0-.624-.296c-4.14-.338-8.326.3-11.913 2.471-.274.071-.505.278-.581.652-.82 4.035-1.07 8.193-1.06 12.32-1.832.012-3.722.11-5.27 1.075-1.333.83-2.452 2.222-1.506 3.605 1.738 2.538 7.915 1.356 8.623-1.29.055-.206.08-.394.081-.568v-.005c-.127-4.75-.026-9.605.883-14.286 2.944-1.71 6.254-2.278 9.62-2.15-.586 3.337-.706 6.662-.661 10.038-1.576.067-3.31.255-4.548 1.055-1.177.76-1.998 2.25-1.116 3.447 1.62 2.199 6.932.628 7.506-1.72.04-.16.06-.3.066-.426.016-.075.025-.154.023-.241-.126-4.318-.12-8.536.762-12.782a.92.92 0 0 0-.285-.9"/>
    </g>
</svg>
