<svg xmlns="http://www.w3.org/2000/svg" xmlns:xlink="http://www.w3.org/1999/xlink" width="50" height="51" viewBox="0 0 50 51">
    <defs>
        <filter id="a" width="167.5%" height="165.9%" x="-33.8%" y="-32.9%" filterUnits="objectBoundingBox">
            <feOffset dy="2" in="SourceAlpha" result="shadowOffsetOuter1"/>
            <feGaussianBlur in="shadowOffsetOuter1" result="shadowBlurOuter1" stdDeviation="2.5"/>
            <feColorMatrix in="shadowBlurOuter1" result="shadowMatrixOuter1" values="0 0 0 0 0 0 0 0 0 0 0 0 0 0 0 0 0 0 0.3 0"/>
            <feMerge>
                <feMergeNode in="shadowMatrixOuter1"/>
                <feMergeNode in="SourceGraphic"/>
            </feMerge>
        </filter>
        <path id="b" d="M11.317 2.252C6.501 4.062 3 8.438 1.223 13.152-.956 18.932-.21 26.763 3.356 32.121c2.848 4.282 9.41 8.348 14.458 8.682 5.373.354 10.731-.953 15.021-4.324 8.491-6.67 10.247-23.669.828-31.362-1.64-1.34-3.674-2.391-5.682-3.078-2.16-.74-4.49-1.416-6.766-1.73-3.037-.42-6.324-.052-8.924 1.644-.325.078-.65.176-.974.298z"/>
    </defs>
    <g fill="none" fill-rule="evenodd" filter="url(#a)" transform="translate(5 3)">
        <mask id="c" fill="#fff">
            <use xlink:href="#b"/>
        </mask>
        <use fill="#A2A9B4" xlink:href="#b"/>
        <path fill="#D4D7D8" d="M11.317-1.748C6.501.062 3 4.438 1.223 9.152-.956 14.932-.21 22.763 3.356 28.121c2.848 4.282 9.41 8.348 14.458 8.682 5.373.354 10.731-.953 15.021-4.324 8.491-6.67 10.247-23.669.828-31.362-1.64-1.34-3.674-2.391-5.682-3.078-2.16-.74-4.49-1.416-6.766-1.73-3.037-.42-6.324-.052-8.924 1.644-.325.078-.65.176-.974.298z" mask="url(#c)"/>
        <g fill="#A2A9B4">
            <path d="M16.232 9.313c3.366-1.3 7.03-.937 9.446 1.846-.304.092-.615.183-.946.272-.484.067-.943.432-1.098.864a1.237 1.237 0 0 0-.07.554l.002.007c.003.034.008.067.015.1l.004.03c.09.44.456.842.897.998.693.339 3.11 2.063 3.94 2.128 1.253.098 1.602-1.069 1.823-2.026.212-.917.573-1.778.757-2.703.16-.801-.822-1.587-1.582-1.383-.49.132-.94.267-1.375.404a1.32 1.32 0 0 0-.208-.416c-2.934-3.964-7.991-4.624-12.36-2.964-4.37 1.66-6.72 5.441-6.584 10.1.045 1.553 2.47 1.622 2.424.059-.107-3.624 1.475-6.541 4.915-7.87zM31.238 19.98c-.045-1.554-2.469-1.623-2.423-.06.105 3.634-1.575 6.425-5.069 7.578-1.031.341-2.189.65-3.273.741-2.365.196-4.596-.804-6.15-2.523l1.082-.295c.855-.232 1.487-1.23.747-1.959-.633-.623-1.362-1.129-2.13-1.594-.762-.461-1.66-1.283-2.62-.907-.772.3-1.167 1.183-1.477 1.853-.32.694-.527 1.46-.945 2.108a1.307 1.307 0 0 0-.075.133 1.05 1.05 0 0 0-.137.782c.101.505.648.998 1.225 1.012a1.08 1.08 0 0 0 .761-.161l1.107-.302c.042.13.107.26.199.386 2.967 4.009 8.015 4.552 12.445 3.022 4.409-1.524 6.87-5.127 6.733-9.815"/>
        </g>
    </g>
</svg>
