<svg xmlns="http://www.w3.org/2000/svg" xmlns:xlink="http://www.w3.org/1999/xlink" width="50" height="51" viewBox="0 0 50 51">
    <defs>
        <filter id="a" width="167.5%" height="165.9%" x="-33.8%" y="-32.9%" filterUnits="objectBoundingBox">
            <feOffset dy="2" in="SourceAlpha" result="shadowOffsetOuter1"/>
            <feGaussianBlur in="shadowOffsetOuter1" result="shadowBlurOuter1" stdDeviation="2.5"/>
            <feColorMatrix in="shadowBlurOuter1" result="shadowMatrixOuter1" values="0 0 0 0 0 0 0 0 0 0 0 0 0 0 0 0 0 0 0.3 0"/>
            <feMerge>
                <feMergeNode in="shadowMatrixOuter1"/>
                <feMergeNode in="SourceGraphic"/>
            </feMerge>
        </filter>
        <path id="b" d="M11.317 2.252C6.501 4.062 3 8.438 1.223 13.152-.956 18.932-.21 26.763 3.356 32.121c2.848 4.282 9.41 8.348 14.458 8.682 5.373.354 10.731-.953 15.021-4.324 8.491-6.67 10.247-23.669.828-31.362-1.64-1.34-3.674-2.391-5.682-3.078-2.16-.74-4.49-1.416-6.766-1.73-3.037-.42-6.324-.052-8.924 1.644-.325.078-.65.176-.974.298z"/>
    </defs>
    <g fill="none" fill-rule="evenodd">
        <g filter="url(#a)" transform="translate(5 3)">
            <mask id="c" fill="#fff">
                <use xlink:href="#b"/>
            </mask>
            <use fill="#A2A9B4" xlink:href="#b"/>
            <path fill="#D4D7D8" d="M11.317-1.748C6.501.062 3 4.438 1.223 9.152-.956 14.932-.21 22.763 3.356 28.121c2.848 4.282 9.41 8.348 14.458 8.682 5.373.354 10.731-.953 15.021-4.324 8.491-6.67 10.247-23.669.828-31.362-1.64-1.34-3.674-2.391-5.682-3.078-2.16-.74-4.49-1.416-6.766-1.73-3.037-.42-6.324-.052-8.924 1.644-.325.078-.65.176-.974.298z" mask="url(#c)"/>
        </g>
        <path fill="#A2A9B4" d="M37.349 15.108l.213-.13-.213.13c.487.803.197 1.715-.671 2.318-3.475 2.415-5.984 4.828-10.918 10.136l-.41.44c-.88.948-1.398 1.501-1.958 2.092-.61.645-1.957.65-2.558.002-2.102-2.259-4.36-4.221-6.794-5.874-.863-.586-1.011-1.595-.495-2.43.513-.83 1.437-1.092 2.301-.505a45.213 45.213 0 0 1 6.06 4.9l.182.176.174-.185.63-.672c5.336-5.677 8.158-8.358 11.985-11.018.725-.504 2.005-.15 2.472.62z"/>
    </g>
</svg>
