<svg xmlns="http://www.w3.org/2000/svg" xmlns:xlink="http://www.w3.org/1999/xlink" width="24" height="26" viewBox="0 0 24 26">
    <defs>
        <path id="a" d="M0 .125h23.954v23.573H0z"/>
    </defs>
    <g fill="none" fill-rule="evenodd">
        <path fill="#88C0E3" d="M22.272 7.472c-1.38-2.135-3.348-4.441-5.81-5.533-.975-.705-2.525-.732-3.89-.829-5.397-.384-11 3.644-12.15 8.793-.656 2.943-.328 5.93 1.169 8.569 1.48 2.608 3.92 4.483 6.805 5.463 5.963 2.025 12.804-1.273 14.78-7.13.996-2.95.761-6.759-.904-9.333"/>
        <g transform="translate(0 .89)">
            <mask id="b" fill="#fff">
                <use xlink:href="#a"/>
            </mask>
            <path fill="#007FB7" d="M18.826 21.952c2.129-1.388 2.967-2.137 4.05-4.604.701-.978.965-4.063 1.057-5.43.364-5.398-3.975-10.353-9.129-11.482-2.945-.645-5.93-.306-8.563 1.2-2.603 1.49-4.355 3.28-5.503 6.102-2.416 5.937 1.386 13.523 7.25 15.478 2.954.984 8.27.41 10.838-1.264" mask="url(#b)"/>
        </g>
        <path fill="#FFF" d="M15.648 7.685c-.944.264-1.33-.46-2.05-1.032-.55-.436-1.559-.603-1.981-.321-.313.208-.244.817-.224.916.587 2.924.824 5.348.746 8.263-1.153.016-2.712-.049-3.769.936-.77.717-1.014 1.594-.706 2.21.923 1.839 5.078.28 5.446-.978a.799.799 0 0 0 .063-.267c.2-3.453.145-6.125-.43-9.51.232.106 1.447 1.542 3.169.6.847-.463.68-1.082-.264-.817"/>
    </g>
</svg>
